<svg width="80" height="80" viewBox="0 0 80 80" fill="none" xmlns="http://www.w3.org/2000/svg">
<rect width="80" height="80" rx="40" fill="#F9F9F9"/>
<g clip-path="url(#clip0_0_210)">
<path d="M43.4076 30.935L46.9385 27.3979C47.0644 27.2718 47.2138 27.1717 47.3783 27.1034C47.5428 27.0351 47.7191 27 47.8971 27C48.0752 27 48.2515 27.0351 48.416 27.1034C48.5805 27.1717 48.7299 27.2718 48.8557 27.3979L54.6033 33.1547C54.8573 33.4091 55 33.7541 55 34.1139C55 34.4737 54.8573 34.8187 54.6033 35.0731L49.4844 40.199V52.6432C49.4844 53.0031 49.3417 53.3482 49.0876 53.6026C48.8335 53.8571 48.4889 54 48.1295 54H31.8705C31.5112 54 31.1665 53.8571 30.9124 53.6026C30.6583 53.3482 30.5156 53.0031 30.5156 52.6432V40.199L25.3967 35.0731C25.1427 34.8187 25 34.4737 25 34.1139C25 33.7541 25.1427 33.4091 25.3967 33.1547L31.1443 27.3979C31.2701 27.2718 31.4195 27.1717 31.584 27.1034C31.7485 27.0351 31.9248 27 32.1029 27C32.2809 27 32.4572 27.0351 32.6217 27.1034C32.7862 27.1717 32.9356 27.2718 33.0615 27.3979L36.5924 30.935H43.4076Z" fill="url(#paint0_linear_0_210)"/>
</g>
<defs>
<linearGradient id="paint0_linear_0_210" x1="25" y1="40.5" x2="55" y2="40.5" gradientUnits="userSpaceOnUse">
<stop stop-color="#DA22FF"/>
<stop offset="1" stop-color="#9733EE"/>
</linearGradient>
<clipPath id="clip0_0_210">
<rect width="32" height="32" fill="white" transform="translate(24 24)"/>
</clipPath>
</defs>
</svg>
