<svg width="80" height="80" viewBox="0 0 80 80" fill="none" xmlns="http://www.w3.org/2000/svg">
<rect width="80" height="80" rx="40" fill="#F9F9F9"/>
<g clip-path="url(#clip0_0_222)">
<path d="M38.7701 27L52.0964 28.9048L54 42.2319L41.6254 54.6059C41.373 54.8582 41.0306 55 40.6736 55C40.3167 55 39.9743 54.8582 39.7219 54.6059L26.3942 41.2788C26.1418 41.0264 26 40.684 26 40.3271C26 39.9701 26.1418 39.6278 26.3942 39.3753L38.7701 27ZM42.5772 38.4236C42.8273 38.6735 43.1241 38.8718 43.4508 39.0071C43.7775 39.1423 44.1277 39.2119 44.4813 39.2118C44.8349 39.2118 45.185 39.1421 45.5116 39.0067C45.8383 38.8713 46.1351 38.673 46.385 38.4229C46.635 38.1729 46.8333 37.876 46.9686 37.5493C47.1038 37.2226 47.1734 36.8725 47.1733 36.5189C47.1733 36.1654 47.1036 35.8153 46.9682 35.4886C46.8328 35.162 46.6344 34.8652 46.3844 34.6153C46.1343 34.3653 45.8374 34.167 45.5107 34.0318C45.184 33.8965 44.8339 33.827 44.4803 33.827C43.7662 33.8271 43.0814 34.1109 42.5765 34.6159C42.0717 35.121 41.7881 35.8058 41.7883 36.5199C41.7884 37.234 42.0722 37.9187 42.5772 38.4236Z" fill="url(#paint0_linear_0_222)"/>
</g>
<defs>
<linearGradient id="paint0_linear_0_222" x1="26" y1="41" x2="54" y2="41" gradientUnits="userSpaceOnUse">
<stop stop-color="#4568DC"/>
<stop offset="1" stop-color="#B06AB3"/>
</linearGradient>
<clipPath id="clip0_0_222">
<rect width="32" height="32" fill="white" transform="translate(24 24)"/>
</clipPath>
</defs>
</svg>
