<svg width="80" height="80" viewBox="0 0 80 80" fill="none" xmlns="http://www.w3.org/2000/svg">
<rect width="80" height="80" rx="40" fill="#F9F9F9"/>
<g clip-path="url(#clip0_0_216)">
<path d="M32.3571 27H48.6429C49.0028 27 49.348 27.1422 49.6025 27.3954C49.857 27.6486 50 27.992 50 28.35V52.65C50 53.008 49.857 53.3514 49.6025 53.6046C49.348 53.8578 49.0028 54 48.6429 54H32.3571C31.9972 54 31.652 53.8578 31.3975 53.6046C31.143 53.3514 31 53.008 31 52.65V28.35C31 27.992 31.143 27.6486 31.3975 27.3954C31.652 27.1422 31.9972 27 32.3571 27ZM40.5 47.25C40.1401 47.25 39.7949 47.3922 39.5404 47.6454C39.2858 47.8986 39.1429 48.242 39.1429 48.6C39.1429 48.958 39.2858 49.3014 39.5404 49.5546C39.7949 49.8078 40.1401 49.95 40.5 49.95C40.8599 49.95 41.2051 49.8078 41.4596 49.5546C41.7142 49.3014 41.8571 48.958 41.8571 48.6C41.8571 48.242 41.7142 47.8986 41.4596 47.6454C41.2051 47.3922 40.8599 47.25 40.5 47.25Z" fill="url(#paint0_linear_0_216)"/>
</g>
<defs>
<linearGradient id="paint0_linear_0_216" x1="31" y1="40.5" x2="50" y2="40.5" gradientUnits="userSpaceOnUse">
<stop stop-color="#0052D4"/>
<stop offset="0.5" stop-color="#4364F7"/>
<stop offset="1" stop-color="#6FB1FC"/>
</linearGradient>
<clipPath id="clip0_0_216">
<rect width="32" height="32" fill="white" transform="translate(24 24)"/>
</clipPath>
</defs>
</svg>
